<?xml version="1.0" encoding="UTF-8"?>
<!DOCTYPE svg PUBLIC "-//W3C//DTD SVG 1.1//EN" "http://www.w3.org/Graphics/SVG/1.1/DTD/svg11.dtd">
<svg xmlns="http://www.w3.org/2000/svg" version="1.1" width="543px" height="318px" style="shape-rendering:geometricPrecision; text-rendering:geometricPrecision; image-rendering:optimizeQuality; fill-rule:evenodd; clip-rule:evenodd" xmlns:xlink="http://www.w3.org/1999/xlink">
<g><path style="opacity:0.997" fill="#06090a" d="M 175.5,-0.5 C 181.5,-0.5 187.5,-0.5 193.5,-0.5C 195.905,0.768202 198.572,1.43487 201.5,1.5C 208.21,2.68647 213.877,5.68647 218.5,10.5C 219.5,12.1667 220.833,13.5 222.5,14.5C 223.167,14.5 223.5,14.8333 223.5,15.5C 225.273,18.0599 227.273,20.3932 229.5,22.5C 231.008,24.1815 232.008,26.1815 232.5,28.5C 234.771,33.5845 236.104,38.9178 236.5,44.5C 236.666,49.5111 236.499,54.5111 236,59.5C 234.512,65.4491 233.345,71.4491 232.5,77.5C 232.5,79.1667 232.5,80.8333 232.5,82.5C 232.738,84.4044 233.738,85.7377 235.5,86.5C 237.167,89.1721 238.834,91.8388 240.5,94.5C 241.325,92.6404 242.325,90.9738 243.5,89.5C 245.262,88.7377 246.262,87.4044 246.5,85.5C 248.404,85.2624 249.738,84.2624 250.5,82.5C 250.5,81.8333 250.833,81.5 251.5,81.5C 253.434,80.8897 255.101,79.8897 256.5,78.5C 257.209,77.596 258.209,77.2627 259.5,77.5C 264.797,76.7255 270.13,76.3921 275.5,76.5C 278.877,76.9595 282.211,77.6261 285.5,78.5C 287.674,78.7497 289.341,79.7497 290.5,81.5C 290.973,82.9063 291.973,83.573 293.5,83.5C 294.5,83.8333 295.167,84.5 295.5,85.5C 295.738,87.4044 296.738,88.7377 298.5,89.5C 299.931,90.7804 300.598,92.4471 300.5,94.5C 301.5,94.5 302.5,94.5 303.5,94.5C 303.733,91.4582 304.733,88.7916 306.5,86.5C 307.906,86.0269 308.573,85.0269 308.5,83.5C 309.88,83.0377 310.547,82.0377 310.5,80.5C 308.94,73.3418 307.273,66.3418 305.5,59.5C 305.5,53.1667 305.5,46.8333 305.5,40.5C 305.5,40.1667 305.5,39.8333 305.5,39.5C 307.338,35.3316 309.005,30.9983 310.5,26.5C 310.66,24.847 311.326,23.5137 312.5,22.5C 314.823,19.8739 317.157,17.2072 319.5,14.5C 319.833,13.5 320.5,12.8333 321.5,12.5C 322.5,12.1667 323.167,11.5 323.5,10.5C 325.404,10.2624 326.738,9.26242 327.5,7.5C 327.842,6.66175 328.508,6.32842 329.5,6.5C 331.027,6.57298 332.027,5.90632 332.5,4.5C 334.553,4.59794 336.22,3.93127 337.5,2.5C 340.163,1.2479 342.83,0.247901 345.5,-0.5C 352.833,-0.5 360.167,-0.5 367.5,-0.5C 372.79,1.26085 377.79,3.59418 382.5,6.5C 382.973,7.90632 383.973,8.57298 385.5,8.5C 386.167,8.5 386.5,8.83333 386.5,9.5C 386.973,10.9063 387.973,11.573 389.5,11.5C 390.167,11.5 390.5,11.8333 390.5,12.5C 390.833,13.5 391.5,14.1667 392.5,14.5C 394.094,17.7642 396.427,20.4309 399.5,22.5C 399.427,24.0269 400.094,25.0269 401.5,25.5C 401.738,27.4044 402.738,28.7377 404.5,29.5C 405.419,32.0892 407.086,34.0892 409.5,35.5C 409.833,37.8333 411.167,39.1667 413.5,39.5C 416.697,39.4054 419.697,40.0721 422.5,41.5C 424.214,42.7384 426.214,43.405 428.5,43.5C 436.081,45.6895 443.081,49.0228 449.5,53.5C 449.973,54.9063 450.973,55.573 452.5,55.5C 454.389,56.604 456.055,57.9373 457.5,59.5C 458.585,61.5869 460.251,62.9202 462.5,63.5C 463.833,64.1667 464.833,65.1667 465.5,66.5C 466.167,67.8333 467.167,68.8333 468.5,69.5C 469.419,72.0892 471.086,74.0892 473.5,75.5C 474.167,76.8333 475.167,77.8333 476.5,78.5C 477.419,81.0892 479.086,83.0892 481.5,84.5C 482.167,84.5 482.5,84.8333 482.5,85.5C 483.167,86.8333 484.167,87.8333 485.5,88.5C 485.738,90.4044 486.738,91.7377 488.5,92.5C 489.833,93.1667 490.833,94.1667 491.5,95.5C 492.757,98.4274 494.757,100.761 497.5,102.5C 498.5,102.833 499.167,103.5 499.5,104.5C 500.419,107.089 502.086,109.089 504.5,110.5C 505.5,110.833 506.167,111.5 506.5,112.5C 508.094,115.764 510.427,118.431 513.5,120.5C 513.738,122.404 514.738,123.738 516.5,124.5C 516.833,125.5 517.5,126.167 518.5,126.5C 518.738,128.404 519.738,129.738 521.5,130.5C 521.427,132.027 522.094,133.027 523.5,133.5C 524.674,134.514 525.34,135.847 525.5,137.5C 527.012,141.201 529.012,144.534 531.5,147.5C 532.738,149.214 533.405,151.214 533.5,153.5C 535.525,159.247 537.525,164.914 539.5,170.5C 540.187,174.336 541.187,178.002 542.5,181.5C 542.5,189.5 542.5,197.5 542.5,205.5C 541.542,210.658 540.875,215.991 540.5,221.5C 540.5,221.833 540.5,222.167 540.5,222.5C 538.339,230.125 536.006,237.792 533.5,245.5C 533.672,246.492 533.338,247.158 532.5,247.5C 529.992,251.182 527.992,255.182 526.5,259.5C 526.068,260.71 525.401,261.71 524.5,262.5C 523.094,262.973 522.427,263.973 522.5,265.5C 521.094,265.973 520.427,266.973 520.5,268.5C 518.738,269.262 517.738,270.596 517.5,272.5C 517.167,273.5 516.5,274.167 515.5,274.5C 514.094,274.973 513.427,275.973 513.5,277.5C 510.167,281.5 506.5,285.167 502.5,288.5C 500.973,288.427 499.973,289.094 499.5,290.5C 499.167,291.5 498.5,292.167 497.5,292.5C 495.973,292.427 494.973,293.094 494.5,294.5C 493.564,295.974 492.23,296.974 490.5,297.5C 488.973,297.427 487.973,298.094 487.5,299.5C 482.219,303.146 476.552,306.313 470.5,309C 460.54,312.486 450.54,315.319 440.5,317.5C 429.167,317.5 417.833,317.5 406.5,317.5C 404.626,316.715 402.626,316.048 400.5,315.5C 398.095,314.232 395.428,313.565 392.5,313.5C 386.155,312.496 380.155,310.496 374.5,307.5C 374.027,306.094 373.027,305.427 371.5,305.5C 366.68,303.926 362.347,301.593 358.5,298.5C 357.738,296.738 356.404,295.738 354.5,295.5C 353.833,295.167 353.167,294.833 352.5,294.5C 351.415,292.413 349.749,291.08 347.5,290.5C 346.167,289.833 345.167,288.833 344.5,287.5C 342.5,284.833 340.167,282.5 337.5,280.5C 336.833,280.5 336.5,280.167 336.5,279.5C 335.5,277.833 334.167,276.5 332.5,275.5C 330.937,274.055 329.604,272.389 328.5,270.5C 328.262,268.596 327.262,267.262 325.5,266.5C 325.573,264.973 324.906,263.973 323.5,263.5C 322.662,263.158 322.328,262.492 322.5,261.5C 322.573,259.973 321.906,258.973 320.5,258.5C 319.89,257.609 319.557,256.609 319.5,255.5C 318.071,252.304 316.405,249.304 314.5,246.5C 312.26,242.902 310.926,238.902 310.5,234.5C 309.489,231.06 308.489,227.726 307.5,224.5C 307.631,223.624 307.298,222.957 306.5,222.5C 301.349,231.662 293.682,237.328 283.5,239.5C 280.627,239.802 277.961,240.469 275.5,241.5C 269.343,242.371 263.343,241.705 257.5,239.5C 256.486,238.326 255.153,237.66 253.5,237.5C 253.167,237.5 252.833,237.5 252.5,237.5C 252.027,236.094 251.027,235.427 249.5,235.5C 247.973,235.573 246.973,234.906 246.5,233.5C 246.027,232.094 245.027,231.427 243.5,231.5C 240.168,229 237.334,226 235,222.5C 234.536,223.094 234.369,223.761 234.5,224.5C 233.593,226.657 232.927,228.99 232.5,231.5C 232.5,231.833 232.5,232.167 232.5,232.5C 231.662,232.842 231.328,233.508 231.5,234.5C 231.768,236.099 231.434,237.432 230.5,238.5C 229.262,240.214 228.595,242.214 228.5,244.5C 228.672,245.492 228.338,246.158 227.5,246.5C 225.659,248.849 224.326,251.515 223.5,254.5C 223.34,256.153 222.674,257.486 221.5,258.5C 219.75,259.659 218.75,261.326 218.5,263.5C 217.094,263.973 216.427,264.973 216.5,266.5C 215.396,268.389 214.063,270.055 212.5,271.5C 211.094,271.973 210.427,272.973 210.5,274.5C 210.167,275.5 209.5,276.167 208.5,276.5C 207.5,276.833 206.833,277.5 206.5,278.5C 206.167,279.5 205.5,280.167 204.5,280.5C 201.833,282.5 199.5,284.833 197.5,287.5C 196.833,288.833 195.833,289.833 194.5,290.5C 192.596,290.738 191.262,291.738 190.5,293.5C 189.564,294.974 188.23,295.974 186.5,296.5C 184.973,296.427 183.973,297.094 183.5,298.5C 181.973,298.427 180.973,299.094 180.5,300.5C 180.158,301.338 179.492,301.672 178.5,301.5C 176.973,301.427 175.973,302.094 175.5,303.5C 162.663,310.557 148.996,315.223 134.5,317.5C 123.5,317.5 112.5,317.5 101.5,317.5C 99.6264,316.715 97.6264,316.048 95.5,315.5C 93.0948,314.232 90.4282,313.565 87.5,313.5C 76.0772,311.618 65.7439,307.285 56.5,300.5C 56.0269,299.094 55.0269,298.427 53.5,298.5C 53.0269,297.094 52.0269,296.427 50.5,296.5C 50.0269,295.094 49.0269,294.427 47.5,294.5C 46.4154,292.413 44.7488,291.08 42.5,290.5C 41.4154,288.413 39.7488,287.08 37.5,286.5C 34.5,284.167 31.8333,281.5 29.5,278.5C 29.573,276.973 28.9063,275.973 27.5,275.5C 26.1667,274.833 25.1667,273.833 24.5,272.5C 24.2624,270.596 23.2624,269.262 21.5,268.5C 19.412,266.664 18.0787,264.331 17.5,261.5C 17.1667,260.5 16.5,259.833 15.5,259.5C 14.6743,256.515 13.341,253.849 11.5,251.5C 10.1302,249.75 9.13022,247.75 8.5,245.5C 8.59794,243.447 7.93127,241.78 6.5,240.5C 6.40505,238.214 5.73838,236.214 4.5,234.5C 2.83333,228.5 1.16667,222.5 -0.5,216.5C -0.5,205.5 -0.5,194.5 -0.5,183.5C 0.71715,177.901 2.05048,172.234 3.5,166.5C 5.48089,161.571 7.48089,156.571 9.5,151.5C 9.40206,149.447 10.0687,147.78 11.5,146.5C 13.7505,143.001 15.7505,139.335 17.5,135.5C 17.8333,134.833 18.1667,134.167 18.5,133.5C 20.2624,132.738 21.2624,131.404 21.5,129.5C 23.1563,127.54 24.823,125.54 26.5,123.5C 27.9063,123.027 28.573,122.027 28.5,120.5C 28.8333,119.5 29.5,118.833 30.5,118.5C 32.914,117.089 34.5806,115.089 35.5,112.5C 35.8333,111.5 36.5,110.833 37.5,110.5C 38.5,110.167 39.1667,109.5 39.5,108.5C 41.5869,107.415 42.9202,105.749 43.5,103.5C 44.1667,102.167 45.1667,101.167 46.5,100.5C 48.5869,99.4154 49.9202,97.7488 50.5,95.5C 51.5,93.8333 52.8333,92.5 54.5,91.5C 56.5869,90.4154 57.9202,88.7488 58.5,86.5C 59.5,86.1667 60.1667,85.5 60.5,84.5C 60.8333,83.5 61.5,82.8333 62.5,82.5C 64.2624,81.7377 65.2624,80.4044 65.5,78.5C 67.1667,77.5 68.5,76.1667 69.5,74.5C 71.5869,73.4154 72.9202,71.7488 73.5,69.5C 74.8333,68.8333 75.8333,67.8333 76.5,66.5C 79.7642,64.9059 82.4309,62.5725 84.5,59.5C 86.0269,59.573 87.0269,58.9063 87.5,57.5C 88.4363,56.0256 89.7697,55.0256 91.5,54.5C 93.0269,54.573 94.0269,53.9063 94.5,52.5C 94.8417,51.6618 95.5084,51.3284 96.5,51.5C 98.0269,51.573 99.0269,50.9063 99.5,49.5C 100.78,48.0687 102.447,47.4021 104.5,47.5C 106.153,47.3404 107.486,46.6737 108.5,45.5C 115.039,42.2507 122.039,40.2507 129.5,39.5C 131.262,38.7377 132.262,37.4044 132.5,35.5C 134.262,34.7377 135.262,33.4044 135.5,31.5C 137.914,30.0892 139.581,28.0892 140.5,25.5C 143.54,22.4607 146.206,19.1274 148.5,15.5C 148.833,14.5 149.5,13.8333 150.5,13.5C 152.749,12.9202 154.415,11.5869 155.5,9.5C 157.404,9.26242 158.738,8.26242 159.5,6.5C 164.53,3.38232 169.863,1.04898 175.5,-0.5 Z M 160.5,113.5 C 160.973,114.906 161.973,115.573 163.5,115.5C 164.605,116.6 165.938,117.267 167.5,117.5C 167.973,118.906 168.973,119.573 170.5,119.5C 171.29,120.401 172.29,121.068 173.5,121.5C 174.585,123.587 176.251,124.92 178.5,125.5C 178.973,126.906 179.973,127.573 181.5,127.5C 181.5,128.833 182.167,129.5 183.5,129.5C 183.5,130.167 183.833,130.5 184.5,130.5C 185.757,133.427 187.757,135.761 190.5,137.5C 190.833,138.5 191.5,139.167 192.5,139.5C 192.427,141.027 193.094,142.027 194.5,142.5C 194.738,144.404 195.738,145.738 197.5,146.5C 198.833,148.833 200.167,151.167 201.5,153.5C 202.326,156.485 203.659,159.151 205.5,161.5C 205.285,163.179 205.952,164.179 207.5,164.5C 208.036,168.314 209.036,171.981 210.5,175.5C 210.322,179.122 210.989,182.456 212.5,185.5C 213.569,201.487 211.902,217.154 207.5,232.5C 205.461,233.911 204.461,235.911 204.5,238.5C 202.326,241.515 200.659,244.849 199.5,248.5C 197.738,249.262 196.738,250.596 196.5,252.5C 195.094,252.973 194.427,253.973 194.5,255.5C 193.094,255.973 192.427,256.973 192.5,258.5C 191.167,259.167 190.167,260.167 189.5,261.5C 187.086,262.911 185.419,264.911 184.5,267.5C 182.539,268.46 180.873,269.793 179.5,271.5C 177.251,272.08 175.585,273.413 174.5,275.5C 173.29,275.932 172.29,276.599 171.5,277.5C 169.973,277.427 168.973,278.094 168.5,279.5C 166.973,279.427 165.973,280.094 165.5,281.5C 127.354,300.619 91.3537,297.286 57.5,271.5C 56.0892,269.086 54.0892,267.419 51.5,266.5C 50.8333,265.167 49.8333,264.167 48.5,263.5C 47.9202,261.251 46.5869,259.585 44.5,258.5C 44.5,257.167 43.8333,256.5 42.5,256.5C 42.573,254.973 41.9063,253.973 40.5,253.5C 40.6716,252.508 40.3382,251.842 39.5,251.5C 39.573,249.973 38.9063,248.973 37.5,248.5C 37.573,246.973 36.9063,245.973 35.5,245.5C 35.573,243.973 34.9063,242.973 33.5,242.5C 32.0689,237.989 30.4022,233.655 28.5,229.5C 28.6545,226.284 27.6545,223.617 25.5,221.5C 22.8619,206.171 22.8619,190.838 25.5,175.5C 26.7899,174.942 27.6232,173.942 28,172.5C 28.9428,169.176 29.7761,165.843 30.5,162.5C 31.8676,159.079 33.5342,155.745 35.5,152.5C 37.2503,151.341 38.2503,149.674 38.5,147.5C 40.3998,145.381 42.0664,143.047 43.5,140.5C 45.2624,139.738 46.2624,138.404 46.5,136.5C 49.8333,133.833 52.8333,130.833 55.5,127.5C 56.8333,127.5 57.5,126.833 57.5,125.5C 89.3873,101.58 123.721,97.5796 160.5,113.5 Z M 443.5,105.5 C 445.214,106.738 447.214,107.405 449.5,107.5C 459.371,110.679 468.704,115.012 477.5,120.5C 478.262,122.262 479.596,123.262 481.5,123.5C 481.973,124.906 482.973,125.573 484.5,125.5C 487.833,129.5 491.5,133.167 495.5,136.5C 495.738,138.404 496.738,139.738 498.5,140.5C 503.379,147.604 507.712,154.937 511.5,162.5C 512.777,169.306 514.777,175.64 517.5,181.5C 518.781,193.159 518.781,204.826 517.5,216.5C 516.883,216.611 516.383,216.944 516,217.5C 515.055,221.494 514.222,225.494 513.5,229.5C 511.792,232.95 510.459,236.617 509.5,240.5C 506.836,242.484 505.169,245.151 504.5,248.5C 502.75,249.659 501.75,251.326 501.5,253.5C 500.662,253.842 500.328,254.508 500.5,255.5C 498.5,255.5 497.5,256.5 497.5,258.5C 495.413,259.585 494.08,261.251 493.5,263.5C 491.833,264.5 490.5,265.833 489.5,267.5C 488.167,267.5 487.5,268.167 487.5,269.5C 486.167,269.5 485.5,270.167 485.5,271.5C 483.973,271.427 482.973,272.094 482.5,273.5C 480.596,273.738 479.262,274.738 478.5,276.5C 475.131,278.515 471.798,280.515 468.5,282.5C 466.973,282.427 465.973,283.094 465.5,284.5C 446.27,292.904 426.27,295.57 405.5,292.5C 403.562,290.837 401.228,290.171 398.5,290.5C 391.829,288.05 385.163,285.383 378.5,282.5C 378.027,281.094 377.027,280.427 375.5,280.5C 375.158,279.662 374.492,279.328 373.5,279.5C 373.027,278.094 372.027,277.427 370.5,277.5C 370.027,276.094 369.027,275.427 367.5,275.5C 367.5,274.833 367.167,274.5 366.5,274.5C 365.738,272.738 364.404,271.738 362.5,271.5C 362.167,270.5 361.5,269.833 360.5,269.5C 358.167,266.5 355.5,263.833 352.5,261.5C 352.167,260.5 351.5,259.833 350.5,259.5C 350.262,257.596 349.262,256.262 347.5,255.5C 347.262,253.596 346.262,252.262 344.5,251.5C 344.573,249.973 343.906,248.973 342.5,248.5C 340.872,243.91 338.705,239.577 336,235.5C 334.186,230.904 332.686,226.238 331.5,221.5C 328.833,206.165 328.833,190.832 331.5,175.5C 333.142,170.914 334.808,166.248 336.5,161.5C 338.341,159.151 339.674,156.485 340.5,153.5C 342.071,151.365 343.404,149.032 344.5,146.5C 346.262,145.738 347.262,144.404 347.5,142.5C 348.906,142.027 349.573,141.027 349.5,139.5C 351.262,138.738 352.262,137.404 352.5,135.5C 355.167,134.833 356.833,133.167 357.5,130.5C 358.167,130.5 358.5,130.167 358.5,129.5C 359.833,129.5 360.5,128.833 360.5,127.5C 362.027,127.573 363.027,126.906 363.5,125.5C 365.404,125.262 366.738,124.262 367.5,122.5C 390.255,105.976 415.588,100.309 443.5,105.5 Z M 285.5,178.5 C 287.167,180.833 289.167,182.833 291.5,184.5C 294.354,189.398 296.02,194.731 296.5,200.5C 295.388,202.599 294.721,204.933 294.5,207.5C 293.89,208.391 293.557,209.391 293.5,210.5C 291.738,211.262 290.738,212.596 290.5,214.5C 288.5,215.833 286.833,217.5 285.5,219.5C 284.508,219.328 283.842,219.662 283.5,220.5C 281.973,220.427 280.973,221.094 280.5,222.5C 260.775,226.588 249.442,218.755 246.5,199C 246.404,193.203 248.07,188.037 251.5,183.5C 253.167,182.5 254.5,181.167 255.5,179.5C 265.223,173.232 275.223,172.898 285.5,178.5 Z"/></g>
<g><path style="opacity:0.132" fill="#e4e4e4" d="M 193.5,-0.5 C 195.167,-0.5 196.833,-0.5 198.5,-0.5C 199.5,0.166667 200.5,0.833333 201.5,1.5C 198.572,1.43487 195.905,0.768202 193.5,-0.5 Z"/></g>
<g><path style="opacity:0.125" fill="#dbdbdb" d="M 337.5,2.5 C 336.22,3.93127 334.553,4.59794 332.5,4.5C 333.78,3.06873 335.447,2.40206 337.5,2.5 Z"/></g>
<g><path style="opacity:0.549" fill="#c1c1c1" d="M 332.5,4.5 C 332.027,5.90632 331.027,6.57298 329.5,6.5C 329.973,5.09368 330.973,4.42702 332.5,4.5 Z"/></g>
<g><path style="opacity:0.012" fill="#e4e5e5" d="M 382.5,6.5 C 384.027,6.42702 385.027,7.09368 385.5,8.5C 383.973,8.57298 382.973,7.90632 382.5,6.5 Z"/></g>
<g><path style="opacity:0.557" fill="#afafb0" d="M 159.5,6.5 C 158.738,8.26242 157.404,9.26242 155.5,9.5C 156.262,7.73758 157.596,6.73758 159.5,6.5 Z"/></g>
<g><path style="opacity:0.486" fill="#cccccc" d="M 327.5,7.5 C 326.738,9.26242 325.404,10.2624 323.5,10.5C 324.262,8.73758 325.596,7.73758 327.5,7.5 Z"/></g>
<g><path style="opacity:0.008" fill="#d9d9d9" d="M 386.5,9.5 C 388.027,9.42702 389.027,10.0937 389.5,11.5C 387.973,11.573 386.973,10.9063 386.5,9.5 Z"/></g>
<g><path style="opacity:0.106" fill="#f0f0f0" d="M 218.5,10.5 C 220.833,10.8333 222.167,12.1667 222.5,14.5C 220.833,13.5 219.5,12.1667 218.5,10.5 Z"/></g>
<g><path style="opacity:0.131" fill="#f8f8f8" d="M 323.5,10.5 C 323.167,11.5 322.5,12.1667 321.5,12.5C 321.5,11.1667 322.167,10.5 323.5,10.5 Z"/></g>
<g><path style="opacity:0.757" fill="#8b8b8b" d="M 155.5,9.5 C 154.415,11.5869 152.749,12.9202 150.5,13.5C 151.585,11.4131 153.251,10.0798 155.5,9.5 Z"/></g>
<g><path style="opacity:0.132" fill="#fefffe" d="M 390.5,12.5 C 391.833,12.5 392.5,13.1667 392.5,14.5C 391.5,14.1667 390.833,13.5 390.5,12.5 Z"/></g>
<g><path style="opacity:0.08" fill="#eeedee" d="M 223.5,15.5 C 226.652,16.7791 228.652,19.1125 229.5,22.5C 227.273,20.3932 225.273,18.0599 223.5,15.5 Z"/></g>
<g><path style="opacity:0.145" fill="#ececec" d="M 319.5,14.5 C 317.157,17.2072 314.823,19.8739 312.5,22.5C 313.45,18.5865 315.783,15.9198 319.5,14.5 Z"/></g>
<g><path style="opacity:0.259" fill="#cdcdce" d="M 392.5,14.5 C 395.573,16.5691 397.906,19.2358 399.5,22.5C 396.427,20.4309 394.094,17.7642 392.5,14.5 Z"/></g>
<g><path style="opacity:0.349" fill="#d7d7d7" d="M 148.5,15.5 C 146.206,19.1274 143.54,22.4607 140.5,25.5C 142.033,21.296 144.7,17.9626 148.5,15.5 Z"/></g>
<g><path style="opacity:0.231" fill="#e0e0e0" d="M 399.5,22.5 C 400.906,22.9731 401.573,23.9731 401.5,25.5C 400.094,25.0269 399.427,24.0269 399.5,22.5 Z"/></g>
<g><path style="opacity:0.58" fill="#9e9e9e" d="M 401.5,25.5 C 403.262,26.2623 404.262,27.5956 404.5,29.5C 402.738,28.7377 401.738,27.4044 401.5,25.5 Z"/></g>
<g><path style="opacity:0.263" fill="#cecfcf" d="M 140.5,25.5 C 139.581,28.0892 137.914,30.0892 135.5,31.5C 136.419,28.9108 138.086,26.9108 140.5,25.5 Z"/></g>
<g><path style="opacity:0.314" fill="#d0d0d0" d="M 135.5,31.5 C 135.262,33.4044 134.262,34.7377 132.5,35.5C 132.738,33.5956 133.738,32.2623 135.5,31.5 Z"/></g>
<g><path style="opacity:0.314" fill="#b3b4b4" d="M 404.5,29.5 C 406.914,30.9108 408.581,32.9108 409.5,35.5C 407.086,34.0892 405.419,32.0892 404.5,29.5 Z"/></g>
<g><path style="opacity:0.1" fill="#f2f2f2" d="M 232.5,28.5 C 235.997,33.1266 237.664,38.46 237.5,44.5C 237.167,44.5 236.833,44.5 236.5,44.5C 236.104,38.9178 234.771,33.5845 232.5,28.5 Z"/></g>
<g><path style="opacity:0.149" fill="#ededee" d="M 310.5,26.5 C 309.005,30.9983 307.338,35.3316 305.5,39.5C 305.419,34.3983 307.085,30.065 310.5,26.5 Z"/></g>
<g><path style="opacity:0.573" fill="#adadad" d="M 132.5,35.5 C 132.262,37.4044 131.262,38.7377 129.5,39.5C 129.738,37.5956 130.738,36.2623 132.5,35.5 Z"/></g>
<g><path style="opacity:0.525" fill="#b6b6b6" d="M 409.5,35.5 C 411.167,36.5 412.5,37.8333 413.5,39.5C 411.167,39.1667 409.833,37.8333 409.5,35.5 Z"/></g>
<g><path style="opacity:0.022" fill="#e5e5e5" d="M 422.5,41.5 C 424.898,41.2594 426.898,41.9261 428.5,43.5C 426.214,43.405 424.214,42.7384 422.5,41.5 Z"/></g>
<g><path style="opacity:0.773" fill="#aaaaaa" d="M 108.5,45.5 C 107.486,46.6737 106.153,47.3404 104.5,47.5C 105.287,45.8958 106.62,45.2291 108.5,45.5 Z"/></g>
<g><path style="opacity:0.51" fill="#c1c1c1" d="M 305.5,40.5 C 305.5,46.8333 305.5,53.1667 305.5,59.5C 302.942,53.1754 302.942,46.842 305.5,40.5 Z"/></g>
<g><path style="opacity:0.58" fill="#bcbcbc" d="M 99.5,49.5 C 99.0269,50.9063 98.0269,51.573 96.5,51.5C 96.9731,50.0937 97.9731,49.427 99.5,49.5 Z"/></g>
<g><path style="opacity:0.514" fill="#b7b7b7" d="M 94.5,52.5 C 94.0269,53.9063 93.0269,54.573 91.5,54.5C 91.9731,53.0937 92.9731,52.427 94.5,52.5 Z"/></g>
<g><path style="opacity:0.043" fill="#f6f6f6" d="M 449.5,53.5 C 451.027,53.427 452.027,54.0937 452.5,55.5C 450.973,55.573 449.973,54.9063 449.5,53.5 Z"/></g>
<g><path style="opacity:0.15" fill="#cfd0d0" d="M 236.5,44.5 C 236.833,44.5 237.167,44.5 237.5,44.5C 238.527,55.9845 236.86,66.9845 232.5,77.5C 233.345,71.4491 234.512,65.4491 236,59.5C 236.499,54.5111 236.666,49.5111 236.5,44.5 Z"/></g>
<g><path style="opacity:0.929" fill="#9f9fa0" d="M 87.5,57.5 C 87.0269,58.9063 86.0269,59.573 84.5,59.5C 84.9731,58.0937 85.9731,57.427 87.5,57.5 Z"/></g>
<g><path style="opacity:0.112" fill="#ddddde" d="M 457.5,59.5 C 459.749,60.0798 461.415,61.4131 462.5,63.5C 460.251,62.9202 458.585,61.5869 457.5,59.5 Z"/></g>
<g><path style="opacity:0.459" fill="#aaabab" d="M 84.5,59.5 C 82.4309,62.5725 79.7642,64.9059 76.5,66.5C 78.5691,63.4275 81.2358,61.0941 84.5,59.5 Z"/></g>
<g><path style="opacity:0.082" fill="#fefffe" d="M 76.5,66.5 C 75.8333,67.8333 74.8333,68.8333 73.5,69.5C 73.5,67.5 74.5,66.5 76.5,66.5 Z"/></g>
<g><path style="opacity:0.084" fill="#fefffe" d="M 465.5,66.5 C 467.5,66.5 468.5,67.5 468.5,69.5C 467.167,68.8333 466.167,67.8333 465.5,66.5 Z"/></g>
<g><path style="opacity:0.561" fill="#a0a0a0" d="M 73.5,69.5 C 72.9202,71.7488 71.5869,73.4154 69.5,74.5C 70.0798,72.2512 71.4131,70.5846 73.5,69.5 Z"/></g>
<g><path style="opacity:0.053" fill="#dbdcdc" d="M 305.5,59.5 C 307.273,66.3418 308.94,73.3418 310.5,80.5C 310.547,82.0377 309.88,83.0377 308.5,83.5C 308.414,82.5041 308.748,81.6708 309.5,81C 307.456,73.987 306.123,66.8204 305.5,59.5 Z"/></g>
<g><path style="opacity:0.404" fill="#c2c2c2" d="M 468.5,69.5 C 470.914,70.9108 472.581,72.9108 473.5,75.5C 471.086,74.0892 469.419,72.0892 468.5,69.5 Z"/></g>
<g><path style="opacity:0.06" fill="#fbfbfb" d="M 69.5,74.5 C 68.5,76.1667 67.1667,77.5 65.5,78.5C 65.8333,76.1667 67.1667,74.8333 69.5,74.5 Z"/></g>
<g><path style="opacity:0.047" fill="#e6e6e6" d="M 275.5,76.5 C 275.5,76.1667 275.5,75.8333 275.5,75.5C 279.286,75.32 282.619,76.32 285.5,78.5C 282.211,77.6261 278.877,76.9595 275.5,76.5 Z"/></g>
<g><path style="opacity:0.055" fill="#fcfdfd" d="M 473.5,75.5 C 475.5,75.5 476.5,76.5 476.5,78.5C 475.167,77.8333 474.167,76.8333 473.5,75.5 Z"/></g>
<g><path style="opacity:1" fill="#979797" d="M 275.5,75.5 C 275.5,75.8333 275.5,76.1667 275.5,76.5C 270.13,76.3921 264.797,76.7255 259.5,77.5C 264.553,74.8921 269.886,74.2254 275.5,75.5 Z"/></g>
<g><path style="opacity:0.671" fill="#afafaf" d="M 65.5,78.5 C 65.2624,80.4044 64.2624,81.7377 62.5,82.5C 62.7376,80.5956 63.7376,79.2623 65.5,78.5 Z"/></g>
<g><path style="opacity:0.302" fill="#dfe0e0" d="M 256.5,78.5 C 255.101,79.8897 253.434,80.8897 251.5,81.5C 252.401,79.2729 254.067,78.2729 256.5,78.5 Z"/></g>
<g><path style="opacity:0.012" fill="#e4e4e5" d="M 290.5,81.5 C 292.027,81.427 293.027,82.0937 293.5,83.5C 291.973,83.573 290.973,82.9063 290.5,81.5 Z"/></g>
<g><path style="opacity:0.455" fill="#cbcbcb" d="M 476.5,78.5 C 478.914,79.9108 480.581,81.9108 481.5,84.5C 479.086,83.0892 477.419,81.0892 476.5,78.5 Z"/></g>
<g><path style="opacity:0.765" fill="#939393" d="M 250.5,82.5 C 249.738,84.2624 248.404,85.2624 246.5,85.5C 247.262,83.7376 248.596,82.7376 250.5,82.5 Z"/></g>
<g><path style="opacity:0.081" fill="#fefffe" d="M 60.5,84.5 C 60.1667,85.5 59.5,86.1667 58.5,86.5C 58.5,85.1667 59.1667,84.5 60.5,84.5 Z"/></g>
<g><path style="opacity:0.184" fill="#bbbbbb" d="M 232.5,82.5 C 234.262,83.2623 235.262,84.5956 235.5,86.5C 233.738,85.7377 232.738,84.4044 232.5,82.5 Z"/></g>
<g><path style="opacity:0.133" fill="#d6d6d6" d="M 308.5,83.5 C 308.573,85.0269 307.906,86.0269 306.5,86.5C 306.427,84.9731 307.094,83.9731 308.5,83.5 Z"/></g>
<g><path style="opacity:0.046" fill="#fefffe" d="M 482.5,85.5 C 484.5,85.5 485.5,86.5 485.5,88.5C 484.167,87.8333 483.167,86.8333 482.5,85.5 Z"/></g>
<g><path style="opacity:0.58" fill="#a1a1a1" d="M 246.5,85.5 C 246.262,87.4044 245.262,88.7377 243.5,89.5C 243.738,87.5956 244.738,86.2623 246.5,85.5 Z"/></g>
<g><path style="opacity:0.522" fill="#9f9f9f" d="M 295.5,85.5 C 297.262,86.2623 298.262,87.5956 298.5,89.5C 296.738,88.7377 295.738,87.4044 295.5,85.5 Z"/></g>
<g><path style="opacity:0.373" fill="#b9b9b9" d="M 58.5,86.5 C 57.9202,88.7488 56.5869,90.4154 54.5,91.5C 55.0798,89.2512 56.4131,87.5846 58.5,86.5 Z"/></g>
<g><path style="opacity:0.337" fill="#cecece" d="M 485.5,88.5 C 487.262,89.2623 488.262,90.5956 488.5,92.5C 486.738,91.7377 485.738,90.4044 485.5,88.5 Z"/></g>
<g><path style="opacity:0.231" fill="#c5c5c6" d="M 50.5,95.5 C 49.9202,97.7488 48.5869,99.4154 46.5,100.5C 47.0798,98.2512 48.4131,96.5846 50.5,95.5 Z"/></g>
<g><path style="opacity:0.251" fill="#cdcece" d="M 491.5,95.5 C 494.243,97.2393 496.243,99.5726 497.5,102.5C 494.757,100.761 492.757,98.4274 491.5,95.5 Z"/></g>
<g><path style="opacity:0.945" fill="#aaaaaa" d="M 43.5,103.5 C 42.9202,105.749 41.5869,107.415 39.5,108.5C 40.0798,106.251 41.4131,104.585 43.5,103.5 Z"/></g>
<g><path style="opacity:0.953" fill="#797979" d="M 443.5,105.5 C 445.898,105.259 447.898,105.926 449.5,107.5C 447.214,107.405 445.214,106.738 443.5,105.5 Z"/></g>
<g><path style="opacity:0.286" fill="#cfcfd0" d="M 499.5,104.5 C 501.914,105.911 503.581,107.911 504.5,110.5C 502.086,109.089 500.419,107.089 499.5,104.5 Z"/></g>
<g><path style="opacity:0.314" fill="#ededed" d="M 39.5,108.5 C 39.1667,109.5 38.5,110.167 37.5,110.5C 37.5,109.167 38.1667,108.5 39.5,108.5 Z"/></g>
<g><path style="opacity:0.063" fill="#d1d1d1" d="M 160.5,113.5 C 162.027,113.427 163.027,114.094 163.5,115.5C 161.973,115.573 160.973,114.906 160.5,113.5 Z"/></g>
<g><path style="opacity:0.42" fill="#c8c8c8" d="M 35.5,112.5 C 34.5806,115.089 32.914,117.089 30.5,118.5C 31.4194,115.911 33.086,113.911 35.5,112.5 Z"/></g>
<g><path style="opacity:0.408" fill="#cccccd" d="M 506.5,112.5 C 509.573,114.569 511.906,117.236 513.5,120.5C 510.427,118.431 508.094,115.764 506.5,112.5 Z"/></g>
<g><path style="opacity:0.216" fill="#c9c9c9" d="M 167.5,117.5 C 169.027,117.427 170.027,118.094 170.5,119.5C 168.973,119.573 167.973,118.906 167.5,117.5 Z"/></g>
<g><path style="opacity:0.255" fill="#c2c2c2" d="M 477.5,120.5 C 479.404,120.738 480.738,121.738 481.5,123.5C 479.596,123.262 478.262,122.262 477.5,120.5 Z"/></g>
<g><path style="opacity:0.651" fill="#a1a1a1" d="M 28.5,120.5 C 28.573,122.027 27.9063,123.027 26.5,123.5C 26.427,121.973 27.0937,120.973 28.5,120.5 Z"/></g>
<g><path style="opacity:0.604" fill="#a8a9a9" d="M 513.5,120.5 C 515.262,121.262 516.262,122.596 516.5,124.5C 514.738,123.738 513.738,122.404 513.5,120.5 Z"/></g>
<g><path style="opacity:0.008" fill="#efefef" d="M 367.5,122.5 C 366.738,124.262 365.404,125.262 363.5,125.5C 364.262,123.738 365.596,122.738 367.5,122.5 Z"/></g>
<g><path style="opacity:0.053" fill="#f0f0f0" d="M 26.5,123.5 C 24.823,125.54 23.1563,127.54 21.5,129.5C 21.7717,126.268 23.4384,124.268 26.5,123.5 Z"/></g>
<g><path style="opacity:0.059" fill="#dbdbdb" d="M 173.5,121.5 C 175.749,122.08 177.415,123.413 178.5,125.5C 176.251,124.92 174.585,123.587 173.5,121.5 Z"/></g>
<g><path style="opacity:0.29" fill="#a6a6a6" d="M 481.5,123.5 C 483.027,123.427 484.027,124.094 484.5,125.5C 482.973,125.573 481.973,124.906 481.5,123.5 Z"/></g>
<g><path style="opacity:0.02" fill="#fafbfb" d="M 516.5,124.5 C 517.833,124.5 518.5,125.167 518.5,126.5C 517.5,126.167 516.833,125.5 516.5,124.5 Z"/></g>
<g><path style="opacity:0.737" fill="#9a9a9a" d="M 178.5,125.5 C 180.027,125.427 181.027,126.094 181.5,127.5C 179.973,127.573 178.973,126.906 178.5,125.5 Z"/></g>
<g><path style="opacity:0.004" fill="#eaeaea" d="M 57.5,125.5 C 57.5,126.833 56.8333,127.5 55.5,127.5C 55.8333,126.5 56.5,125.833 57.5,125.5 Z"/></g>
<g><path style="opacity:0.004" fill="#d8d8d8" d="M 181.5,127.5 C 182.5,127.833 183.167,128.5 183.5,129.5C 182.167,129.5 181.5,128.833 181.5,127.5 Z"/></g>
<g><path style="opacity:0.004" fill="#d5d5d5" d="M 360.5,127.5 C 360.5,128.833 359.833,129.5 358.5,129.5C 358.833,128.5 359.5,127.833 360.5,127.5 Z"/></g>
<g><path style="opacity:0.184" fill="#e4e4e6" d="M 518.5,126.5 C 520.262,127.262 521.262,128.596 521.5,130.5C 519.738,129.738 518.738,128.404 518.5,126.5 Z"/></g>
<g><path style="opacity:0.404" fill="#cecece" d="M 21.5,129.5 C 21.2624,131.404 20.2624,132.738 18.5,133.5C 18.7376,131.596 19.7376,130.262 21.5,129.5 Z"/></g>
<g><path style="opacity:0.004" fill="#e0e0e0" d="M 184.5,130.5 C 187.243,132.239 189.243,134.573 190.5,137.5C 187.757,135.761 185.757,133.427 184.5,130.5 Z"/></g>
<g><path style="opacity:0.131" fill="#f0f0f1" d="M 521.5,130.5 C 522.906,130.973 523.573,131.973 523.5,133.5C 522.094,133.027 521.427,132.027 521.5,130.5 Z"/></g>
<g><path style="opacity:0.008" fill="#eaeaea" d="M 357.5,130.5 C 356.833,133.167 355.167,134.833 352.5,135.5C 353.833,133.5 355.5,131.833 357.5,130.5 Z"/></g>
<g><path style="opacity:0.004" fill="#dedede" d="M 495.5,136.5 C 497.262,137.262 498.262,138.596 498.5,140.5C 496.738,139.738 495.738,138.404 495.5,136.5 Z"/></g>
<g><path style="opacity:0.01" fill="#e6e6e6" d="M 525.5,137.5 C 528.476,140.096 530.476,143.43 531.5,147.5C 529.012,144.534 527.012,141.201 525.5,137.5 Z"/></g>
<g><path style="opacity:0.016" fill="#e0e0e0" d="M 46.5,136.5 C 46.2624,138.404 45.2624,139.738 43.5,140.5C 43.7376,138.596 44.7376,137.262 46.5,136.5 Z"/></g>
<g><path style="opacity:0.096" fill="#e1e1e1" d="M 17.5,135.5 C 15.7505,139.335 13.7505,143.001 11.5,146.5C 12.2145,142.067 14.2145,138.4 17.5,135.5 Z"/></g>
<g><path style="opacity:0.004" fill="#e9e9e9" d="M 192.5,139.5 C 193.906,139.973 194.573,140.973 194.5,142.5C 193.094,142.027 192.427,141.027 192.5,139.5 Z"/></g>
<g><path style="opacity:0.012" fill="#e7e7e7" d="M 349.5,139.5 C 349.573,141.027 348.906,142.027 347.5,142.5C 347.427,140.973 348.094,139.973 349.5,139.5 Z"/></g>
<g><path style="opacity:0.075" fill="#e9e9e9" d="M 194.5,142.5 C 196.262,143.262 197.262,144.596 197.5,146.5C 195.738,145.738 194.738,144.404 194.5,142.5 Z"/></g>
<g><path style="opacity:0.012" fill="#e8e8e8" d="M 347.5,142.5 C 347.262,144.404 346.262,145.738 344.5,146.5C 344.738,144.596 345.738,143.262 347.5,142.5 Z"/></g>
<g><path style="opacity:0.033" fill="#f1f1f1" d="M 38.5,147.5 C 38.2503,149.674 37.2503,151.341 35.5,152.5C 35.7497,150.326 36.7497,148.659 38.5,147.5 Z"/></g>
<g><path style="opacity:0.098" fill="#e5e5e5" d="M 201.5,153.5 C 203.873,155.579 205.206,158.246 205.5,161.5C 203.659,159.151 202.326,156.485 201.5,153.5 Z"/></g>
<g><path style="opacity:0.067" fill="#e5e5e5" d="M 340.5,153.5 C 339.674,156.485 338.341,159.151 336.5,161.5C 336.794,158.246 338.127,155.579 340.5,153.5 Z"/></g>
<g><path style="opacity:0.059" fill="#e8e8e8" d="M 533.5,153.5 C 535.284,154.574 536.451,156.24 537,158.5C 538.359,162.405 539.192,166.405 539.5,170.5C 537.525,164.914 535.525,159.247 533.5,153.5 Z"/></g>
<g><path style="opacity:0.116" fill="#e9e9ea" d="M 9.5,151.5 C 7.48089,156.571 5.48089,161.571 3.5,166.5C 4.14911,162.049 5.31578,157.716 7,153.5C 7.41691,152.244 8.25025,151.577 9.5,151.5 Z"/></g>
<g><path style="opacity:0.006" fill="#eaeaea" d="M 205.5,161.5 C 206.401,162.29 207.068,163.29 207.5,164.5C 205.952,164.179 205.285,163.179 205.5,161.5 Z"/></g>
<g><path style="opacity:0.04" fill="#e1e1e1" d="M 30.5,162.5 C 29.7761,165.843 28.9428,169.176 28,172.5C 27.6232,173.942 26.7899,174.942 25.5,175.5C 26.5995,170.856 28.2661,166.522 30.5,162.5 Z"/></g>
<g><path style="opacity:0.087" fill="#e4e4e4" d="M 511.5,162.5 C 514.676,168.365 516.676,174.699 517.5,181.5C 514.777,175.64 512.777,169.306 511.5,162.5 Z"/></g>
<g><path style="opacity:0.181" fill="#dbdcdc" d="M 210.5,175.5 C 212.011,178.544 212.678,181.878 212.5,185.5C 210.989,182.456 210.322,179.122 210.5,175.5 Z"/></g>
<g><path style="opacity:0.42" fill="#b9b9b9" d="M 285.5,178.5 C 288.5,179.5 290.5,181.5 291.5,184.5C 289.167,182.833 287.167,180.833 285.5,178.5 Z"/></g>
<g><path style="opacity:0.004" fill="#dddddd" d="M 255.5,179.5 C 254.5,181.167 253.167,182.5 251.5,183.5C 251.833,181.167 253.167,179.833 255.5,179.5 Z"/></g>
<g><path style="opacity:0.027" fill="#e5e5e5" d="M 331.5,175.5 C 328.833,190.832 328.833,206.165 331.5,221.5C 329.089,214.16 328.089,206.494 328.5,198.5C 328.089,190.506 329.089,182.84 331.5,175.5 Z"/></g>
<g><path style="opacity:0.486" fill="#8b8b8b" d="M 296.5,200.5 C 296.829,203.228 296.163,205.562 294.5,207.5C 294.721,204.933 295.388,202.599 296.5,200.5 Z"/></g>
<g><path style="opacity:0.173" fill="#bebebe" d="M 293.5,210.5 C 293.262,212.404 292.262,213.738 290.5,214.5C 290.738,212.596 291.738,211.262 293.5,210.5 Z"/></g>
<g><path style="opacity:0.384" fill="#7d7d7d" d="M 290.5,214.5 C 289.833,217.167 288.167,218.833 285.5,219.5C 286.833,217.5 288.5,215.833 290.5,214.5 Z"/></g>
<g><path style="opacity:0.392" fill="#cecece" d="M 542.5,205.5 C 542.5,210.167 542.5,214.833 542.5,219.5C 541.833,220.167 541.167,220.833 540.5,221.5C 540.875,215.991 541.542,210.658 542.5,205.5 Z"/></g>
<g><path style="opacity:0.329" fill="#8e8e8e" d="M 283.5,220.5 C 283.027,221.906 282.027,222.573 280.5,222.5C 280.973,221.094 281.973,220.427 283.5,220.5 Z"/></g>
<g><path style="opacity:0.037" fill="#f1f1f1" d="M 25.5,221.5 C 27.6545,223.617 28.6545,226.284 28.5,229.5C 27.129,227.064 26.129,224.397 25.5,221.5 Z"/></g>
<g><path style="opacity:0.098" fill="#f0f0f0" d="M 517.5,216.5 C 516.922,221.165 515.589,225.499 513.5,229.5C 514.222,225.494 515.055,221.494 516,217.5C 516.383,216.944 516.883,216.611 517.5,216.5 Z"/></g>
<g><path style="opacity:0.017" fill="#d8d8d8" d="M 234.5,224.5 C 234.662,226.527 234.495,228.527 234,230.5C 233.617,231.056 233.117,231.389 232.5,231.5C 232.927,228.99 233.593,226.657 234.5,224.5 Z"/></g>
<g><path style="opacity:0.051" fill="#d9d9da" d="M 307.5,224.5 C 308.489,227.726 309.489,231.06 310.5,234.5C 308.025,231.749 307.025,228.416 307.5,224.5 Z"/></g>
<g><path style="opacity:0.227" fill="#e8e9e9" d="M 540.5,222.5 C 539.947,230.818 537.614,238.484 533.5,245.5C 536.006,237.792 538.339,230.125 540.5,222.5 Z"/></g>
<g><path style="opacity:0.318" fill="#8c8c8c" d="M 243.5,231.5 C 245.027,231.427 246.027,232.094 246.5,233.5C 244.973,233.573 243.973,232.906 243.5,231.5 Z"/></g>
<g><path style="opacity:0.165" fill="#cacaca" d="M 232.5,232.5 C 233.439,233.327 233.105,233.994 231.5,234.5C 231.328,233.508 231.662,232.842 232.5,232.5 Z"/></g>
<g><path style="opacity:0.022" fill="#e7e7e7" d="M 207.5,232.5 C 207.008,234.819 206.008,236.819 204.5,238.5C 204.461,235.911 205.461,233.911 207.5,232.5 Z"/></g>
<g><path style="opacity:0.112" fill="#eff0f0" d="M 4.5,234.5 C 5.73838,236.214 6.40505,238.214 6.5,240.5C 4.72017,239.01 4.05351,237.01 4.5,234.5 Z"/></g>
<g><path style="opacity:0.09" fill="#bababa" d="M 249.5,235.5 C 251.027,235.427 252.027,236.094 252.5,237.5C 250.973,237.573 249.973,236.906 249.5,235.5 Z"/></g>
<g><path style="opacity:0.022" fill="#d0d0d0" d="M 253.5,237.5 C 255.153,237.66 256.486,238.326 257.5,239.5C 255.62,239.771 254.287,239.104 253.5,237.5 Z"/></g>
<g><path style="opacity:0.037" fill="#e3e3e3" d="M 230.5,238.5 C 230.741,240.898 230.074,242.898 228.5,244.5C 228.595,242.214 229.262,240.214 230.5,238.5 Z"/></g>
<g><path style="opacity:0.018" fill="#dedede" d="M 283.5,239.5 C 281.22,241.223 278.553,241.889 275.5,241.5C 277.961,240.469 280.627,239.802 283.5,239.5 Z"/></g>
<g><path style="opacity:0.063" fill="#e9e9e9" d="M 6.5,240.5 C 7.93127,241.78 8.59794,243.447 8.5,245.5C 6.78679,244.365 6.12012,242.698 6.5,240.5 Z"/></g>
<g><path style="opacity:0.055" fill="#bebdbe" d="M 33.5,242.5 C 34.9063,242.973 35.573,243.973 35.5,245.5C 34.0937,245.027 33.427,244.027 33.5,242.5 Z"/></g>
<g><path style="opacity:0.047" fill="#e6e6e6" d="M 509.5,240.5 C 508.331,243.511 506.664,246.178 504.5,248.5C 505.169,245.151 506.836,242.484 509.5,240.5 Z"/></g>
<g><path style="opacity:0.059" fill="#eaeaea" d="M 35.5,245.5 C 36.9063,245.973 37.573,246.973 37.5,248.5C 36.0937,248.027 35.427,247.027 35.5,245.5 Z"/></g>
<g><path style="opacity:0.071" fill="#f6f6f6" d="M 37.5,248.5 C 38.9063,248.973 39.573,249.973 39.5,251.5C 38.0937,251.027 37.427,250.027 37.5,248.5 Z"/></g>
<g><path style="opacity:0.31" fill="#e2e2e2" d="M 504.5,248.5 C 504.25,250.674 503.25,252.341 501.5,253.5C 501.75,251.326 502.75,249.659 504.5,248.5 Z"/></g>
<g><path style="opacity:0.427" fill="#c8c9c9" d="M 199.5,248.5 C 199.262,250.404 198.262,251.738 196.5,252.5C 196.738,250.596 197.738,249.262 199.5,248.5 Z"/></g>
<g><path style="opacity:0.275" fill="#b4b4b4" d="M 342.5,248.5 C 343.906,248.973 344.573,249.973 344.5,251.5C 343.094,251.027 342.427,250.027 342.5,248.5 Z"/></g>
<g><path style="opacity:0.018" fill="#e4e4e5" d="M 227.5,246.5 C 227.206,249.754 225.873,252.421 223.5,254.5C 224.326,251.515 225.659,248.849 227.5,246.5 Z"/></g>
<g><path style="opacity:0.031" fill="#e4e4e4" d="M 314.5,246.5 C 316.405,249.304 318.071,252.304 319.5,255.5C 316.58,253.338 314.913,250.338 314.5,246.5 Z"/></g>
<g><path style="opacity:0.143" fill="#eaeaea" d="M 532.5,247.5 C 531.54,252.086 529.54,256.086 526.5,259.5C 527.992,255.182 529.992,251.182 532.5,247.5 Z"/></g>
<g><path style="opacity:0.329" fill="#c2c2c2" d="M 344.5,251.5 C 346.262,252.262 347.262,253.596 347.5,255.5C 345.738,254.738 344.738,253.404 344.5,251.5 Z"/></g>
<g><path style="opacity:0.129" fill="#e8e8e8" d="M 196.5,252.5 C 196.573,254.027 195.906,255.027 194.5,255.5C 194.427,253.973 195.094,252.973 196.5,252.5 Z"/></g>
<g><path style="opacity:0.475" fill="#adadae" d="M 40.5,253.5 C 41.9063,253.973 42.573,254.973 42.5,256.5C 41.0937,256.027 40.427,255.027 40.5,253.5 Z"/></g>
<g><path style="opacity:0.076" fill="#efefef" d="M 11.5,251.5 C 13.341,253.849 14.6743,256.515 15.5,259.5C 13.127,257.421 11.7936,254.754 11.5,251.5 Z"/></g>
<g><path style="opacity:0.035" fill="#f8f8f8" d="M 42.5,256.5 C 43.8333,256.5 44.5,257.167 44.5,258.5C 43.5,258.167 42.8333,257.5 42.5,256.5 Z"/></g>
<g><path style="opacity:0.125" fill="#e6e6e6" d="M 500.5,255.5 C 499.833,256.833 498.833,257.833 497.5,258.5C 497.5,256.5 498.5,255.5 500.5,255.5 Z"/></g>
<g><path style="opacity:0.255" fill="#b6b6b6" d="M 194.5,255.5 C 194.573,257.027 193.906,258.027 192.5,258.5C 192.427,256.973 193.094,255.973 194.5,255.5 Z"/></g>
<g><path style="opacity:0.294" fill="#c0c0c0" d="M 347.5,255.5 C 349.262,256.262 350.262,257.596 350.5,259.5C 348.738,258.738 347.738,257.404 347.5,255.5 Z"/></g>
<g><path style="opacity:0.016" fill="#eaeaea" d="M 15.5,259.5 C 16.5,259.833 17.1667,260.5 17.5,261.5C 16.1667,261.5 15.5,260.833 15.5,259.5 Z"/></g>
<g><path style="opacity:0.096" fill="#ebebeb" d="M 221.5,258.5 C 221.25,260.674 220.25,262.341 218.5,263.5C 218.75,261.326 219.75,259.659 221.5,258.5 Z"/></g>
<g><path style="opacity:0.22" fill="#dddddd" d="M 320.5,258.5 C 321.906,258.973 322.573,259.973 322.5,261.5C 321.094,261.027 320.427,260.027 320.5,258.5 Z"/></g>
<g><path style="opacity:0.29" fill="#d2d2d2" d="M 44.5,258.5 C 46.5869,259.585 47.9202,261.251 48.5,263.5C 46.4131,262.415 45.0798,260.749 44.5,258.5 Z"/></g>
<g><path style="opacity:0.827" fill="#b4b4b4" d="M 352.5,261.5 C 355.5,263.833 358.167,266.5 360.5,269.5C 356.833,267.833 354.167,265.167 352.5,261.5 Z"/></g>
<g><path style="opacity:0.373" fill="#d1d1d1" d="M 497.5,258.5 C 496.92,260.749 495.587,262.415 493.5,263.5C 494.08,261.251 495.413,259.585 497.5,258.5 Z"/></g>
<g><path style="opacity:0.065" fill="#f0f0f0" d="M 218.5,263.5 C 218.573,265.027 217.906,266.027 216.5,266.5C 216.427,264.973 217.094,263.973 218.5,263.5 Z"/></g>
<g><path style="opacity:0.078" fill="#f0f0f0" d="M 323.5,263.5 C 324.906,263.973 325.573,264.973 325.5,266.5C 324.094,266.027 323.427,265.027 323.5,263.5 Z"/></g>
<g><path style="opacity:0.004" fill="#e4e4e4" d="M 524.5,262.5 C 524.573,264.027 523.906,265.027 522.5,265.5C 522.427,263.973 523.094,262.973 524.5,262.5 Z"/></g>
<g><path style="opacity:0.286" fill="#aaaaaa" d="M 189.5,261.5 C 188.581,264.089 186.914,266.089 184.5,267.5C 185.419,264.911 187.086,262.911 189.5,261.5 Z"/></g>
<g><path style="opacity:0.004" fill="#eaeaea" d="M 51.5,266.5 C 54.0892,267.419 56.0892,269.086 57.5,271.5C 54.9108,270.581 52.9108,268.914 51.5,266.5 Z"/></g>
<g><path style="opacity:0.037" fill="#e6e6e6" d="M 325.5,266.5 C 327.262,267.262 328.262,268.596 328.5,270.5C 326.738,269.738 325.738,268.404 325.5,266.5 Z"/></g>
<g><path style="opacity:0.02" fill="#e8e8e8" d="M 522.5,265.5 C 522.573,267.027 521.906,268.027 520.5,268.5C 520.427,266.973 521.094,265.973 522.5,265.5 Z"/></g>
<g><path style="opacity:0.125" fill="#eeeeee" d="M 489.5,267.5 C 489.167,268.5 488.5,269.167 487.5,269.5C 487.5,268.167 488.167,267.5 489.5,267.5 Z"/></g>
<g><path style="opacity:0.086" fill="#e8e8e8" d="M 21.5,268.5 C 23.2624,269.262 24.2624,270.596 24.5,272.5C 22.7376,271.738 21.7376,270.404 21.5,268.5 Z"/></g>
<g><path style="opacity:0.271" fill="#cacaca" d="M 487.5,269.5 C 487.167,270.5 486.5,271.167 485.5,271.5C 485.5,270.167 486.167,269.5 487.5,269.5 Z"/></g>
<g><path style="opacity:0.024" fill="#e7e7e7" d="M 520.5,268.5 C 520.262,270.404 519.262,271.738 517.5,272.5C 517.738,270.596 518.738,269.262 520.5,268.5 Z"/></g>
<g><path style="opacity:0.008" fill="#e1e1e2" d="M 362.5,271.5 C 364.404,271.738 365.738,272.738 366.5,274.5C 364.596,274.262 363.262,273.262 362.5,271.5 Z"/></g>
<g><path style="opacity:0.012" fill="#dfdfe0" d="M 212.5,271.5 C 212.573,273.027 211.906,274.027 210.5,274.5C 210.427,272.973 211.094,271.973 212.5,271.5 Z"/></g>
<g><path style="opacity:0.749" fill="#808080" d="M 485.5,271.5 C 485.027,272.906 484.027,273.573 482.5,273.5C 482.973,272.094 483.973,271.427 485.5,271.5 Z"/></g>
<g><path style="opacity:0.467" fill="#a5a5a5" d="M 179.5,271.5 C 178.415,273.587 176.749,274.92 174.5,275.5C 175.585,273.413 177.251,272.08 179.5,271.5 Z"/></g>
<g><path style="opacity:0.212" fill="#bdbdbd" d="M 482.5,273.5 C 481.738,275.262 480.404,276.262 478.5,276.5C 479.262,274.738 480.596,273.738 482.5,273.5 Z"/></g>
<g><path style="opacity:0.043" fill="#f2f2f2" d="M 332.5,275.5 C 334.167,276.5 335.5,277.833 336.5,279.5C 334.167,279.167 332.833,277.833 332.5,275.5 Z"/></g>
<g><path style="opacity:0.012" fill="#d7d7d7" d="M 367.5,275.5 C 369.027,275.427 370.027,276.094 370.5,277.5C 368.973,277.573 367.973,276.906 367.5,275.5 Z"/></g>
<g><path style="opacity:0.004" fill="#e0e0e1" d="M 515.5,274.5 C 515.573,276.027 514.906,277.027 513.5,277.5C 513.427,275.973 514.094,274.973 515.5,274.5 Z"/></g>
<g><path style="opacity:0.02" fill="#cfcfcf" d="M 27.5,275.5 C 28.9063,275.973 29.573,276.973 29.5,278.5C 28.0937,278.027 27.427,277.027 27.5,275.5 Z"/></g>
<g><path style="opacity:0.004" fill="#f2f2f2" d="M 208.5,276.5 C 208.5,277.833 207.833,278.5 206.5,278.5C 206.833,277.5 207.5,276.833 208.5,276.5 Z"/></g>
<g><path style="opacity:0.008" fill="#dddddd" d="M 370.5,277.5 C 372.027,277.427 373.027,278.094 373.5,279.5C 371.973,279.573 370.973,278.906 370.5,277.5 Z"/></g>
<g><path style="opacity:0.294" fill="#bcbcbc" d="M 171.5,277.5 C 171.027,278.906 170.027,279.573 168.5,279.5C 168.973,278.094 169.973,277.427 171.5,277.5 Z"/></g>
<g><path style="opacity:0.498" fill="#a1a1a1" d="M 168.5,279.5 C 168.027,280.906 167.027,281.573 165.5,281.5C 165.973,280.094 166.973,279.427 168.5,279.5 Z"/></g>
<g><path style="opacity:0.049" fill="#e3e3e3" d="M 375.5,280.5 C 377.027,280.427 378.027,281.094 378.5,282.5C 376.973,282.573 375.973,281.906 375.5,280.5 Z"/></g>
<g><path style="opacity:0.004" fill="#d3d3d4" d="M 337.5,280.5 C 340.167,282.5 342.5,284.833 344.5,287.5C 341.167,286.167 338.833,283.833 337.5,280.5 Z"/></g>
<g><path style="opacity:0.471" fill="#a0a0a0" d="M 468.5,282.5 C 468.027,283.906 467.027,284.573 465.5,284.5C 465.973,283.094 466.973,282.427 468.5,282.5 Z"/></g>
<g><path style="opacity:0.016" fill="#dfdfdf" d="M 204.5,280.5 C 203.167,283.833 200.833,286.167 197.5,287.5C 199.5,284.833 201.833,282.5 204.5,280.5 Z"/></g>
<g><path style="opacity:0.2" fill="#c2c2c3" d="M 37.5,286.5 C 39.7488,287.08 41.4154,288.413 42.5,290.5C 40.2512,289.92 38.5846,288.587 37.5,286.5 Z"/></g>
<g><path style="opacity:0.004" fill="#e9e9e9" d="M 502.5,288.5 C 502.027,289.906 501.027,290.573 499.5,290.5C 499.973,289.094 500.973,288.427 502.5,288.5 Z"/></g>
<g><path style="opacity:0.021" fill="#d6d6d6" d="M 398.5,290.5 C 401.228,290.171 403.562,290.837 405.5,292.5C 402.933,292.279 400.599,291.612 398.5,290.5 Z"/></g>
<g><path style="opacity:0.027" fill="#e6e6e6" d="M 194.5,290.5 C 193.738,292.262 192.404,293.262 190.5,293.5C 191.262,291.738 192.596,290.738 194.5,290.5 Z"/></g>
<g><path style="opacity:0.286" fill="#b3b3b3" d="M 42.5,290.5 C 44.7488,291.08 46.4154,292.413 47.5,294.5C 45.2512,293.92 43.5846,292.587 42.5,290.5 Z"/></g>
<g><path style="opacity:0.041" fill="#e9e9e9" d="M 347.5,290.5 C 349.749,291.08 351.415,292.413 352.5,294.5C 350.251,293.92 348.585,292.587 347.5,290.5 Z"/></g>
<g><path style="opacity:0.008" fill="#e9e9e9" d="M 497.5,292.5 C 497.027,293.906 496.027,294.573 494.5,294.5C 494.973,293.094 495.973,292.427 497.5,292.5 Z"/></g>
<g><path style="opacity:0.192" fill="#acacac" d="M 47.5,294.5 C 49.0269,294.427 50.0269,295.094 50.5,296.5C 48.9731,296.573 47.9731,295.906 47.5,294.5 Z"/></g>
<g><path style="opacity:0.318" fill="#afafaf" d="M 354.5,295.5 C 356.404,295.738 357.738,296.738 358.5,298.5C 356.596,298.262 355.262,297.262 354.5,295.5 Z"/></g>
<g><path style="opacity:0.322" fill="#9e9e9e" d="M 50.5,296.5 C 52.0269,296.427 53.0269,297.094 53.5,298.5C 51.9731,298.573 50.9731,297.906 50.5,296.5 Z"/></g>
<g><path style="opacity:0.004" fill="#ececec" d="M 186.5,296.5 C 186.027,297.906 185.027,298.573 183.5,298.5C 183.973,297.094 184.973,296.427 186.5,296.5 Z"/></g>
<g><path style="opacity:0.004" fill="#f0f0f0" d="M 490.5,297.5 C 490.027,298.906 489.027,299.573 487.5,299.5C 487.973,298.094 488.973,297.427 490.5,297.5 Z"/></g>
<g><path style="opacity:0.275" fill="#adadad" d="M 53.5,298.5 C 55.0269,298.427 56.0269,299.094 56.5,300.5C 54.9731,300.573 53.9731,299.906 53.5,298.5 Z"/></g>
<g><path style="opacity:0.043" fill="#f2f2f2" d="M 183.5,298.5 C 183.027,299.906 182.027,300.573 180.5,300.5C 180.973,299.094 181.973,298.427 183.5,298.5 Z"/></g>
<g><path style="opacity:0.061" fill="#f1f1f1" d="M 178.5,301.5 C 178.027,302.906 177.027,303.573 175.5,303.5C 175.973,302.094 176.973,301.427 178.5,301.5 Z"/></g>
<g><path style="opacity:0.157" fill="#d1d1d1" d="M 371.5,305.5 C 373.027,305.427 374.027,306.094 374.5,307.5C 372.973,307.573 371.973,306.906 371.5,305.5 Z"/></g>
<g><path style="opacity:0.976" fill="#7b7b7b" d="M 87.5,313.5 C 90.4282,313.565 93.0948,314.232 95.5,315.5C 92.5049,315.706 89.8383,315.04 87.5,313.5 Z"/></g>
<g><path style="opacity:0.984" fill="#969697" d="M 392.5,313.5 C 395.428,313.565 398.095,314.232 400.5,315.5C 397.505,315.706 394.838,315.04 392.5,313.5 Z"/></g>
</svg>
