<?xml version="1.0" encoding="UTF-8" standalone="no"?>
<!-- Created with Inkscape (http://www.inkscape.org/) -->

<svg
   width="3500"
   height="2000"
   viewBox="0 0 875 500"
   version="1.1"
   id="svg1"
   xml:space="preserve"
   sodipodi:docname="logo-text-dark.svg"
   xmlns:inkscape="http://www.inkscape.org/namespaces/inkscape"
   xmlns:sodipodi="http://sodipodi.sourceforge.net/DTD/sodipodi-0.dtd"
   xmlns="http://www.w3.org/2000/svg"
   xmlns:svg="http://www.w3.org/2000/svg"><sodipodi:namedview
     id="namedview1"
     pagecolor="#ffffff"
     bordercolor="#000000"
     borderopacity="0.25"
     inkscape:showpageshadow="2"
     inkscape:pageopacity="0.0"
     inkscape:pagecheckerboard="0"
     inkscape:deskcolor="#d1d1d1" /><defs
     id="defs1" /><g
     id="layer1"><g
       style="fill:#121212;fill-opacity:1"
       id="g6"
       transform="matrix(0.41017143,0,0,0.41017143,331.82221,406.06615)"><g
         id="g1"
         transform="translate(9.6024863)"
         style="fill:#121212;fill-opacity:1">
	
<path
   d="M -24.659306,77.803766 H -699.03678 q -16.07078,0 -26.18941,-10.718648 -10.11864,-10.718659 -10.11864,-27.742404 V -798.60387 q 0,-17.02375 10.11864,-27.7424 10.11863,-10.71866 26.18941,-10.71866 h 229.75261 q 16.07078,0 26.18941,10.71866 10.11864,10.71865 10.11864,27.7424 v 641.85825 h 408.316814 q 16.0707777,0 26.1894157,10.71866 10.1186383,10.71866 10.1186383,27.74241 V 39.342714 q 0,17.023745 -10.1186383,27.742404 -10.118638,10.718648 -26.1894157,10.718648 z"
   id="text7-4"
   style="font-size:1254.62px;font-family:FULLDOZER;-inkscape-font-specification:FULLDOZER;fill:#111111;fill-opacity:1;stroke-width:0.627312"
   aria-label="L" /><path
   d="M 911.69962,76.340082 H 666.47207 q -16.07073,0 -26.18935,-10.681121 -10.1186,-10.681131 -10.1186,-27.645265 V -602.22556 H 386.72223 q -16.07074,0 -26.18935,-10.68112 -10.11862,-10.68114 -10.11862,-27.64528 v -156.44708 q 0,-16.96414 10.11862,-27.64526 10.11861,-10.68113 26.18935,-10.68113 h 818.41717 q 16.0706,0 26.1893,10.68113 10.1186,10.68112 10.1186,27.64526 v 156.44708 q 0,16.96414 -10.1186,27.64528 -10.1187,10.68112 -26.1893,10.68112 H 948.00756 V 38.013696 q 0,16.964134 -10.11865,27.645265 -10.11855,10.681121 -26.18929,10.681121 z"
   id="text7"
   style="font-size:1252.42px;font-family:FULLDOZER;-inkscape-font-specification:'FULLDOZER, Normal';fill:#111111;fill-opacity:1;stroke-width:0.626213"
   aria-label="T" /><path
   d="M 90.750793,-255.80524 H -194.59568 q -37.85573,0 -62.14054,-10.90127 -24.99907,-11.2906 -39.64137,-26.86384 -14.64232,-16.3519 -20.71351,-34.26113 -6.0712,-18.68788 -6.0712,-32.31447 V -732.3464 q 0,-14.01591 6.0712,-32.7038 5.71407,-17.5199 20.71351,-33.8718 13.92805,-15.18391 39.64137,-26.47451 24.28481,-10.90127 62.14054,-10.90127 H 90.750793 q 37.855727,0 62.497657,10.90127 25.3562,11.2906 39.99851,26.47451 14.99944,16.3519 20.71351,33.8718 6.07121,18.68789 6.07121,32.7038 v 372.20045 q 0,25.69584 -10.71389,45.1624 -11.42815,19.46655 -28.9275,32.31447 -17.14221,12.84792 -41.06989,20.24522 -24.2848,6.61862 -48.569607,6.61862 z M -141.74052,-401.02571 H 38.609886 V -691.46664 H -141.74052 Z"
   id="text8"
   style="font-size:763.664px;font-family:FULLDOZER;-inkscape-font-specification:'FULLDOZER, Normal';fill:#111111;fill-opacity:1;stroke-width:0.636387"
   aria-label="O" /><path
   d="M 452.31897,76.980475 H 166.97249 q -37.85572,0 -62.14053,-10.90127 Q 79.832901,54.788608 65.190587,39.21537 50.548273,22.863465 44.477079,4.9542384 38.405875,-13.733645 38.405875,-27.360232 V -399.56068 q 0,-14.01591 6.071204,-32.70381 5.714067,-17.51988 20.713508,-33.87179 13.928051,-15.18391 39.641373,-26.47451 24.28481,-10.90127 62.14053,-10.90127 h 285.34648 q 37.85573,0 62.49766,10.90127 25.3562,11.2906 39.99851,26.47451 14.99943,16.35191 20.71351,33.87179 6.0712,18.6879 6.0712,32.70381 v 372.200448 q 0,25.6958409 -10.71389,45.162401 -11.42814,19.46655 -28.92748,32.31447 -17.14222,12.847921 -41.0699,20.245217 -24.2848,6.618619 -48.56961,6.618619 z M 219.82766,-68.239993 h 180.3504 V -358.68093 h -180.3504 z"
   id="text8-1"
   style="font-size:763.664px;font-family:FULLDOZER;-inkscape-font-specification:'FULLDOZER, Normal';fill:#111111;fill-opacity:1;stroke-width:0.636387"
   aria-label="O" /></g></g></g></svg>
