<?xml version="1.0" encoding="UTF-8" standalone="no"?>
<!-- Created with Inkscape (http://www.inkscape.org/) -->

<svg
   width="4000"
   height="4000"
   viewBox="0 0 1000 1000"
   version="1.1"
   id="svg1"
   xml:space="preserve"
   xmlns="http://www.w3.org/2000/svg"
   xmlns:svg="http://www.w3.org/2000/svg"><defs
     id="defs1" /><g
     id="layer1"><g
       style="fill:#000000"
       id="g6"
       transform="matrix(0.41017143,0,0,0.41017143,394.9801,411.9141)"><g
         id="g1"
         transform="translate(9.6024863)"
         style="fill:#121212;fill-opacity:1">
	
<path
   d="M 47.989941,801.46777 H -646.09427 q -16.5404,0 -26.95472,-10.41432 -10.41433,-10.41433 -10.41433,-26.95473 V -50.05654 q 0,-16.5404 10.41433,-26.954726 10.41432,-10.414326 26.95472,-10.414326 h 236.46647 q 16.5404,0 26.95472,10.414326 10.41433,10.414326 10.41433,26.954726 V 573.57781 H 47.989941 q 16.5404,0 26.954726,10.41433 10.414326,10.41433 10.414326,26.95473 v 153.15185 q 0,16.5404 -10.414326,26.95473 -10.414326,10.41432 -26.954726,10.41432 z"
   id="text7-4"
   style="font-size:1254.62px;font-family:FULLDOZER;-inkscape-font-specification:FULLDOZER;stroke-width:0.627312"
   transform="scale(0.97160757,1.0292221)"
   aria-label="L" /><path
   d="M 1009.9399,801.44885 H 757.98818 q -16.51139,0 -26.90746,-10.39606 -10.39606,-10.39607 -10.39606,-26.90746 V 140.99297 H 470.56757 q -16.5114,0 -26.90746,-10.39606 -10.39607,-10.39607 -10.39607,-26.90747 V -48.58233 q 0,-16.511397 10.39607,-26.907462 10.39606,-10.396064 26.90746,-10.396064 h 840.85823 q 16.5113,0 26.9074,10.396064 10.3961,10.396065 10.3961,26.907462 v 152.27177 q 0,16.5114 -10.3961,26.90747 -10.3961,10.39606 -26.9074,10.39606 h -264.1824 v 623.15236 q 0,16.51139 -10.3961,26.90746 -10.396,10.39606 -26.9074,10.39606 z"
   id="text7"
   style="font-size:1252.42px;font-family:FULLDOZER;-inkscape-font-specification:'FULLDOZER, Normal';stroke-width:0.626213"
   transform="scale(0.9733117,1.0274201)"
   aria-label="T" /><path
   d="m 169.18511,470.52409 h -297.93337 q -39.52558,0 -64.88161,-10.44072 -26.1018,-10.8136 -41.38999,-25.72891 -15.2882,-15.66108 -21.6272,-32.81369 -6.33901,-17.89837 -6.33901,-30.94927 V 14.11553 q 0,-13.42378162 6.33901,-31.322157 5.96612,-16.779726 21.6272,-32.440804 14.54243,-14.54243 41.38999,-25.356032 25.35603,-10.440718 64.88161,-10.440718 h 297.93337 q 39.52558,0 65.25449,10.440718 26.47468,10.813602 41.76288,25.356032 15.66107,15.661078 21.6272,32.440804 6.33901,17.89837538 6.33901,31.322157 V 370.5915 q 0,24.61026 -11.18649,43.25441 -11.93225,18.64414 -30.20351,30.94927 -17.89837,12.30513 -42.88152,19.38991 -25.35603,6.339 -50.71206,6.339 z M -73.561603,331.4388 H 114.74422 V 53.268225 H -73.561603 Z"
   id="text8"
   style="font-size:763.664px;font-family:FULLDOZER;-inkscape-font-specification:'FULLDOZER, Normal';stroke-width:0.636387"
   transform="scale(0.95775266,1.0441109)"
   aria-label="O" /><path
   d="M 546.70239,789.2505 H 248.76902 q -39.52558,0 -64.88161,-10.44072 -26.10179,-10.8136 -41.38999,-25.72891 -15.2882,-15.66108 -21.6272,-32.81369 -6.33901,-17.89837 -6.33901,-30.94927 V 332.84194 q 0,-13.42378 6.33901,-31.32216 5.96612,-16.77972 21.6272,-32.4408 14.54243,-14.54243 41.38999,-25.35603 25.35603,-10.44072 64.88161,-10.44072 h 297.93337 q 39.52558,0 65.25449,10.44072 26.47468,10.8136 41.76288,25.35603 15.66107,15.66108 21.6272,32.4408 6.33901,17.89838 6.33901,31.32216 v 356.47597 q 0,24.61026 -11.18649,43.25441 -11.93225,18.64414 -30.2035,30.94927 -17.89838,12.30513 -42.88153,19.38991 -25.35603,6.339 -50.71206,6.339 z M 303.95568,650.16521 H 492.2615 V 371.99463 H 303.95568 Z"
   id="text8-1"
   style="font-size:763.664px;font-family:FULLDOZER;-inkscape-font-specification:'FULLDOZER, Normal';stroke-width:0.636387"
   transform="scale(0.95775266,1.0441109)"
   aria-label="O" /></g></g></g></svg>
