<?xml version="1.0" encoding="UTF-8" standalone="no"?>
<!-- Created with Inkscape (http://www.inkscape.org/) -->

<svg
   width="4000"
   height="4000"
   viewBox="0 0 1000 1000"
   version="1.1"
   id="svg1"
   xml:space="preserve"
   xmlns="http://www.w3.org/2000/svg"
   xmlns:svg="http://www.w3.org/2000/svg"><defs
     id="defs1" /><g
     id="layer1"><g
       style="fill:#000000"
       id="g6"
       transform="matrix(0.41017143,0,0,0.41017143,394.9801,411.9141)"><g
         id="g1"
         transform="translate(9.6024863)">
	<g
   id="XMLID_1736_"
   transform="matrix(4.9780556,0,0,4.9780556,-982.5842,-880.71843)">
		
		<path
   id="XMLID_1738_"
   d="m 457.70083,175.3442 c -2.7,-2.6 -5.6,-5.1 -8.6,-7.5 v 0 l -41,-34.8 c -15.8,-11.2 -34.6,-18.3 -55,-19.7 l 2.2,2.2 -24.9,-25.000001 h -0.2 c -6.9,-6.3 -16.2,-10.2 -26.3,-10.2 -17.4,0 -32.1,11.3 -37.1,27.000001 -5,-3.2 -10.8,-5.1 -17.1,-5.5 -1,-0.1 -2.1,-0.1 -3.1,-0.1 -7.1,0 -13.7,2.1 -19.3,5.6 -5.1,-15.600001 -19.8,-26.900001 -37.1,-26.900001 -10.1,0 -19.3,3.8 -26.3,10.2 h -0.2 l -24.9,25.000001 2.2,-2.2 c -20.4,1.4 -39.3,8.6 -55.000001,19.7 l -41,34.8 v 0 c -3,2.3 -5.9,4.8 -8.6,7.5 -20.5,19.8 -33.2000002,47.5 -33.2000002,78.2 0,60 48.8000002,108.8 108.8000012,108.8 55.4,0 101.3,-41.7 107.9,-95.4 8,4.6 17.3,7.2 27.1,7.2 9.9,0 19.1,-2.6 27.1,-7.2 6.7,53.6 52.5,95.3 107.9,95.3 60,0 108.8,-48.8 108.8,-108.8 0.1,-30.7 -12.6,-58.4 -33.1,-78.2 z m -345.7,152.5 c -41.000001,0 -74.200001,-33.2 -74.200001,-74.2 0,-41 33.2,-74.2 74.200001,-74.2 41,0 74.2,33.2 74.2,74.2 0.1,40.9 -33.2,74.2 -74.2,74.2 z m 135.1,-84.4 c -13.3,0 -24.1,-10.8 -24.1,-24.1 0,-13.3 10.8,-24.1 24.1,-24.1 13.3,0 24.1,10.8 24.1,24.1 0,13.3 -10.8,24.1 -24.1,24.1 z m 135.1,84.4 c -41,0 -74.2,-33.2 -74.2,-74.2 0,-41 33.2,-74.2 74.2,-74.2 41,0 74.2,33.2 74.2,74.2 0,40.9 -33.2,74.2 -74.2,74.2 z"
   style="fill:#121212;fill-opacity:1" />
		
	</g>
</g></g></g></svg>
